<svg width="2508" height="627" viewBox="0 0 2508 627" fill="none" xmlns="http://www.w3.org/2000/svg">
<path opacity="0.984314" d="M914 133H1057.75L1058.25 134H1066.75L1067.25 135H1073.75L1074 136H1077.75L1078.25 137H1082.75C1082.48 138.133 1083.82 138.467 1086.75 138L1087 139H1090V140H1093V141H1096V142H1099V143H1102V144C1103.73 143.443 1104.4 143.777 1104 145H1107V146C1108.73 145.443 1109.4 145.777 1109 147H1112V148H1114V149H1116V150H1118V151H1119.75C1119.49 152.083 1120.24 152.417 1122 152L1123 154H1124.75C1124.49 155.083 1125.24 155.417 1127 155L1128 157H1129.75C1129.49 158.083 1130.24 158.417 1132 158L1133 160H1135L1136 162H1138L1139 164H1141V165H1142V166H1143L1144 168H1146V169H1147L1148 171H1150V172H1151V173H1152V174H1153L1154 176H1156V177H1157V178H1158V179H1159V180H1160V181H1161V182H1162V183H1163V184H1164V185H1165V186H1166V187L1168 188V190H1169V191H1170V192H1171V193H1172V194H1173V195L1175 196V198H1176V199L1178 200V202H1179V203L1181 204V206H1182V207L1184 208V210L1186 211V212.75C1187.08 212.487 1187.42 213.237 1187 215L1189 216V217.75C1190.08 217.487 1190.42 218.237 1190 220L1192 221V223H1193V225H1194V227H1195V229H1196V231H1197C1196.44 232.733 1196.78 233.4 1198 233V236H1199V238H1200C1199.44 239.733 1199.78 240.4 1201 240V243H1202V246H1203C1202.44 247.733 1202.78 248.4 1204 248V251.75L1205 252V255L1206 255.25V258.75C1207.13 258.483 1207.47 259.817 1207 262.75L1208 263.25V267.75L1209 268V271.75L1210 272.25V278.75L1211 279.25V288.75L1212 289.25V307L1211 307.25V316.75L1210 317.25V322.75L1209 323.25V327.75L1208 328.25V332.75L1207 333V336.75L1206 337V340L1205 340.25V343.75L1204 344V347H1203V350H1202V353H1201C1201.56 354.733 1201.22 355.4 1200 355V358H1199V360H1198V362H1197C1197.56 363.733 1197.22 364.4 1196 364V367C1194.78 366.6 1194.44 367.267 1195 369L1193 370V372H1192V374H1191V376H1190V377.75C1188.92 377.487 1188.58 378.237 1189 380L1187 381V383L1185 384V386L1183 387V389L1181 390V392H1180V393L1178 394V396H1177V397H1176V398H1175V399L1173 400V402H1172V403H1171V404H1170V405H1169V406H1168V407H1167V408H1166V409H1165V410H1164V411H1163V412H1162V413H1161V414H1160V415H1159V416H1158V417H1157L1156 419H1154V420H1153V421H1152L1151 423H1149V424H1148L1147 426H1145V427H1144L1143 429H1141V430H1140L1139 432H1137.25C1137.51 433.083 1136.76 433.417 1135 433L1134 435H1132V436H1130.25C1130.51 437.083 1129.76 437.417 1128 437L1127 439H1125V440H1123V441H1121V442H1119V443H1117V444C1115.27 443.443 1114.6 443.777 1115 445H1112V446H1110V447C1108.27 446.443 1107.6 446.777 1108 448H1105V449C1103.27 448.443 1102.6 448.777 1103 450H1100L1099.75 451H1096.25L1096 452H1093L1092.75 453H1089.25L1088.75 454H1085.25C1085.52 455.133 1084.18 455.467 1081.25 455L1080.75 456H1075.25L1074.75 457H1068.25L1067.75 458H1035.25L1034.75 459H1013L1012.75 458H953C953.333 459 953 459.333 952 459L951.75 458H926L925.75 459H922L921.75 458H913V457H911V456L909 455C909.417 453.237 909.083 452.487 908 452.75V139H909V137H910V136H911L912 134C913.733 134.557 914.4 134.223 914 133ZM960 180C960.333 181.333 959.667 181.667 958 181V412C959 411.667 959.333 412 959 413H1065L1065.5 412H1071L1071.5 411H1076C1075.67 410 1077 409.667 1080 410V409H1083V408H1086V407H1089C1088.67 405.667 1089.33 405.333 1091 406V405H1094C1093.67 403.667 1094.33 403.333 1096 404V403H1098V402H1100V401H1102V400H1104V399H1106L1107 397H1109L1110 395H1112L1113 393H1115L1116 391H1117V390H1119L1120 388H1121V387H1122V386H1124L1125 384H1126V383H1127V382H1128V381H1129V380H1130V379H1131V378H1132V377H1133V376H1134V375H1135V373L1137 372V371H1138V370H1139V369H1140V367L1142 366V364L1144 363V361L1146 360C1145.67 358.333 1146 357.667 1147 358V356H1148V354L1150 353C1149.67 351.333 1150 350.667 1151 351V349H1152V347H1153V344C1154.33 344.333 1154.67 343.667 1154 342H1155V339H1156V336H1157V333H1158V330H1159C1158.67 327 1159 325.667 1160 326V322.5L1161 322V316.5L1162 316V309.5L1163 309V287.5L1162 287V279.5L1161 279V274.5L1160 274V270.5L1159 270V266.5L1158 266V262.5L1157 262V259H1156V256C1154.67 256.333 1154.33 255.667 1155 254H1154V251C1152.67 251.333 1152.33 250.667 1153 249H1152V247H1151V244C1149.67 244.333 1149.33 243.667 1150 242H1149V240L1147 239C1147.33 237.333 1147 236.667 1146 237V235L1144 234V232L1142 231V229L1140 228V226L1138 225V224H1137V222H1136L1135 220H1134V219H1133V218H1132V217H1131V216H1130V215H1129V214H1128V213H1127V212H1126V211H1125V210H1124V209H1123V208H1122V207H1121V206H1119L1118 204H1117V203H1115L1114 201H1113V200H1111L1110 198H1108L1107 196C1105.33 196.333 1104.67 196 1105 195H1103L1102 193C1100.33 193.333 1099.67 193 1100 192H1097C1097.33 190.667 1096.67 190.333 1095 191V190H1093V189H1091V188H1088V187C1086.33 187.333 1085.67 187 1086 186H1083V185C1080 185.333 1078.67 185 1079 184H1075.5L1075 183H1071.5L1071 182H1066.5L1066 181H1058.5L1058 180H960Z" fill="black"/>
<path opacity="0.984314" d="M1334 253H1370.75L1371.25 254H1378V255H1379V256L1381 257V259L1382 259.25V295H1381V296H1380V297H1379V298C1377.95 297.75 1377.53 298.083 1377.75 299H1332.25L1331.75 300H1328.25C1328.52 301.133 1327.18 301.467 1324.25 301C1324.51 302.083 1323.76 302.417 1322 302V303H1319V304H1317.25C1317.51 305.083 1316.76 305.417 1315 305L1314 307H1312L1311 309H1309V310H1308L1307 312H1305V313H1304V314L1302 315V317H1301V318H1300V319L1298 320V322L1296 323V325H1295C1295.56 326.733 1295.22 327.4 1294 327V330H1293C1293.56 331.733 1293.22 332.4 1292 332V335.75L1291 336.25V339.75L1290 340.25V383.75L1289 384.25V455H1288V456H1287V457C1285.95 456.75 1285.53 457.083 1285.75 458H1245V457H1243C1243.33 456 1243 455.667 1242 456C1242.42 454.237 1242.08 453.487 1241 453.75V341L1242 340.75V334.25L1243 333.75V330.25L1244 329.75V326.25L1245 326V323H1246V320H1247V317H1248V315H1249V313H1250V311H1251V309H1252V307H1253V305H1254V303.25C1255.08 303.513 1255.42 302.763 1255 301L1257 300V298L1259 297V295L1261 294V292H1262V291H1263V290H1264V289L1266 288V286H1267V285H1268V284H1269V283H1270V282H1271V281H1272V280H1273V279H1274L1275 277H1277V276H1278V275H1279L1280 273H1282L1283 271H1285V270H1286L1287 268H1289V267H1291V266H1292.75C1292.49 264.917 1293.24 264.583 1295 265L1296 263H1299V262H1301V261C1302.73 261.557 1303.4 261.223 1303 260H1306V259H1309V258H1312L1312.25 257H1315.75L1316.25 256H1319.75L1320.25 255H1324.75L1325.25 254H1333.75L1334 253Z" fill="black"/>
<path opacity="0.984314" d="M1498 253H1631.75L1632 254H1635V255H1636V256L1638 257C1637.58 258.763 1637.92 259.513 1639 259.25V454H1638V455H1637V456H1636V457C1634.95 456.75 1634.53 457.083 1634.75 458H1595V457H1594V456H1593V455H1592C1592.25 453.95 1591.92 453.533 1591 453.75V439.25L1590.75 439H1588C1588.4 440.223 1587.73 440.557 1586 440L1585 442H1583L1582 444H1580V445H1578V446H1576V447H1574V448H1572V449C1570.27 448.443 1569.6 448.777 1570 450H1567V451C1565.27 450.443 1564.6 450.777 1565 452H1562V453H1559L1558.75 454H1555.25L1554.75 455H1551.25C1551.52 456.133 1550.18 456.467 1547.25 456L1546.75 457H1541.25L1540.75 458H1533.25L1532.75 459H1501L1500.75 458H1495.25L1494.75 457H1490.25L1489.75 456H1486.25L1485.75 455H1482.25C1482.52 453.867 1481.18 453.533 1478.25 454C1478.51 452.917 1477.76 452.583 1476 453V452H1473.25L1473 451H1470V450H1468V449H1466V448H1464V447H1462V446H1460V445H1458.25C1458.51 443.917 1457.76 443.583 1456 444L1455 442H1453L1452 440H1450L1449 438H1447V437H1446L1445 435H1443V434H1442V433H1441V432H1440L1439 430H1437V429H1436V428H1435V427H1434V426H1433V425H1432V424L1430 423V421H1429V420H1428V419H1427V418H1426V417L1424 416V414L1422 413V411L1420 410V408L1418 407V405H1417V403.25C1415.92 403.513 1415.58 402.763 1416 401L1414 400V398H1413V396H1412V394H1411C1411.56 392.267 1411.22 391.6 1410 392V389H1409C1409.56 387.267 1409.22 386.6 1408 387V384.25L1407 384V381L1406 380.75V377.25L1405 377V373.25L1404 372.75V369.25L1403 368.75V361.25L1402 360.75V345L1403 344.75V339.25L1404 338.75V334.25C1405.13 334.517 1405.47 333.183 1405 330.25L1406 330V327H1407V324H1408V321H1409V319H1410C1409.44 317.267 1409.78 316.6 1411 317V314L1413 313V311H1414V309H1415V307.25C1416.08 307.513 1416.42 306.763 1416 305L1418 304V302L1420 301V299H1421V298L1423 297V295H1424V294H1425V293L1427 292V290H1428V289H1429V288H1430V287H1431V286H1432V285H1433V284H1434V283H1435V282H1436V281H1437V280H1438L1439 278H1441V277H1442V276H1443L1444 274H1446L1447 272H1449V271H1450L1451 269H1453V268H1454.75C1454.49 266.917 1455.24 266.583 1457 267L1458 265C1459.73 265.557 1460.4 265.223 1460 264H1463L1464 262H1467V261C1468.73 261.557 1469.4 261.223 1469 260H1472V259C1473.73 259.557 1474.4 259.223 1474 258H1477.75L1478 257H1481L1481.25 256C1484.18 256.467 1485.52 256.133 1485.25 255H1489.75L1490.25 254H1497.75L1498 253ZM1501 299V300H1495.5L1495 301H1491.5L1491 302H1488V303H1485C1485.33 304.333 1484.67 304.667 1483 304V305H1481V306H1479V307H1477V308H1475L1474 310H1472L1471 312H1470V313H1468L1467 315H1466V316H1465V317H1464V318H1463V320L1461 321V322H1460V324L1458 325C1458.33 326.667 1458 327.5 1457 327.5V329H1456V331H1455V333H1454V335H1453V338L1452 338.5V342L1451 342.5V348H1450V361L1451 361.5V366C1452 365.667 1452.33 367 1452 370H1453V373H1454V376C1455.33 375.667 1455.67 376.333 1455 378H1456V380H1457V382H1458V384L1460 385V387L1462 388V390L1464 391V392H1465V393H1466V394H1467V395H1468V396H1469V397H1470V398H1471V399H1472V400H1473V401H1475L1476 403H1477V404C1478.67 403.667 1479.5 404 1479.5 405H1481V406H1483V407H1485V408H1487V409H1489V410H1492L1492.5 411H1496L1496.5 412H1500L1500.5 413H1505V414H1535L1535.5 413H1540L1540.5 412H1544L1544.5 411H1548V410H1551C1550.67 408.667 1551.33 408.333 1553 409V408H1556C1555.67 406.667 1556.33 406.333 1558 407V406H1560L1561 404H1563L1564 402H1566L1567 400H1569L1570 398H1571V397H1572V396H1573V395H1574V394H1575V393H1576V391L1578 390V389H1579V388H1580V386L1582 385V383L1584 382C1583.67 380.333 1584 379.667 1585 380V378H1586V375C1587.33 375.333 1587.67 374.667 1587 373H1588V370H1589C1588.67 367 1589 365.667 1590 366V360.5L1591 360V301.5C1590 301.5 1589.67 301 1590 300H1589V299H1501Z" fill="black"/>
<path opacity="0.984314" d="M1774 253H1887.75L1888.25 254H1897L1897.25 253H1904V254H1907V255H1908V256L1910 257V259L1911 259.25V497L1910 497.25V502.75L1909 503V506H1908V509.75L1907 510V513H1906V516H1905V519H1904V522H1903V524H1902C1902.56 525.733 1902.22 526.4 1901 526V529C1899.78 528.6 1899.44 529.267 1900 531L1898 532V534H1897V536H1896V537.75C1894.92 537.487 1894.58 538.237 1895 540L1893 541V543H1892V544L1890 545V547L1888 548V550H1887V551H1886V552H1885V553H1884V554L1882 555V557H1881V558H1880V559H1879V560H1878V561H1877L1876 563H1874V564H1873V565H1872V566H1871V567H1870L1869 569H1867V570H1866L1865 572H1863L1862 574H1860L1859 576H1857V577H1855V578H1853V579H1851V580H1849V581H1847V582C1845.27 581.443 1844.6 581.777 1845 583H1842.25C1842.51 584.083 1841.76 584.417 1840 584V585H1837L1836.75 586H1833.25L1833 587H1830L1829.75 588H1826.25L1825.75 589H1822.25L1821.75 590H1815.25L1814.75 591H1803.25L1802.75 592H1791L1790.75 591H1782.25L1781.75 590H1776.25L1775.75 589H1772.25L1771.75 588H1768.25L1767.75 587H1764.25L1764 586H1761V585H1758V584H1755V583H1753V582H1751V581C1749.27 581.557 1748.6 581.223 1749 580H1746V579H1744.25C1744.51 577.917 1743.76 577.583 1742 578L1741 576H1739.25C1739.51 574.917 1738.76 574.583 1737 575L1736 573H1734L1733 571H1731L1730 569H1728V568H1727V567H1726L1725 565H1723V564H1722V563H1721V562H1720V561H1719V560H1718V559H1717V558H1716V557H1715V556H1714V555H1713V554L1711 553V551H1710V550H1709V549L1707 548V546H1706V545L1704 544V542L1702 541V539.25C1700.92 539.513 1700.58 538.763 1701 537L1699 536V534H1698V532H1697V530H1696V528H1695V526H1694C1694.56 524.267 1694.22 523.6 1693 524V521H1692V518H1691V515H1690V512L1689 511.75V508.25L1688 507.75V503.25C1687.08 503.467 1686.75 503.05 1687 502L1689 501V499C1690 499.333 1690.33 499 1690 498H1692V497H1694.75L1695 496H1698V495H1701V494C1702.73 494.557 1703.4 494.223 1703 493H1705.75C1705.49 491.917 1706.24 491.583 1708 492V491H1710.75L1711 490H1714V489C1715.73 489.557 1716.4 489.223 1716 488H1719V487C1720.73 487.557 1721.4 487.223 1721 486H1723.75L1724 485H1727V484H1729C1728.67 483 1729 482.667 1730 483V484H1731V485L1733 486V489.75L1734 490.25V495.75L1735 496V499L1736 499.25V503H1737V506H1738C1737.44 507.733 1737.78 508.4 1739 508V511H1740V512.75C1741.08 512.487 1741.42 513.237 1741 515L1743 516V517.75C1744.08 517.487 1744.42 518.237 1744 520H1745V521L1747 522V524H1748V525H1749V526H1750V527H1751V528H1752V529H1753V530H1754V531H1755L1756 533H1758V534H1759L1760 536H1762L1763 538H1765V539H1767V540C1768.73 539.443 1769.4 539.777 1769 541H1772V542H1775V543H1778L1778.25 544H1781.75L1782.25 545H1786.75L1787.25 546H1810L1810.25 545H1815.75L1816 544H1819L1819.25 543H1822.75C1822.49 541.917 1823.24 541.583 1825 542V541H1828V540H1830V539H1831.75C1831.49 537.917 1832.24 537.583 1834 538L1835 536H1837L1838 534H1840V533H1841V532H1842L1843 530H1845V529L1847 528V526H1848V525H1849V524H1850V523L1852 522V520L1854 519V517L1856 516V514H1857V512H1858V510.25C1859.08 510.513 1859.42 509.763 1859 508H1860V505H1861V502L1862 501.75V498.25L1863 497.75V491.25L1864 490.75V457.25C1864.92 457.467 1865.25 457.05 1865 456L1864 455.75V443H1860C1860.4 444.223 1859.73 444.557 1858 444L1857 446H1855V447H1853V448H1851V449H1849V450H1847V451C1845.27 450.443 1844.6 450.777 1845 452H1842V453H1839V454H1836V455H1833L1832.75 456H1828.25L1828 457H1824.25L1823.75 458H1817.25L1816.75 459H1801.25L1800.75 460H1790L1789.75 459H1774.25L1773.75 458H1767.25L1766.75 457H1762.25L1761.75 456H1757.25L1756.75 455H1753.25L1752.75 454H1749.25L1749 453H1746V452C1744.27 452.557 1743.6 452.223 1744 451H1741V450H1739V449H1737V448H1735V447H1733V446H1731V445H1729.25C1729.51 443.917 1728.76 443.583 1727 444L1726 442H1724L1723 440H1721V439H1720L1719 437H1717V436H1716L1715 434H1713V433H1712V432H1711V431H1710V430H1709V429H1708V428H1707V427H1706V426H1705V425H1704V424H1703V423H1702L1701 421H1700V419H1699V418H1698V417L1696 416V414H1695V413L1693 412V410L1691 409V407H1690V405H1689V403H1688V401H1687V399H1686V397H1685V395H1684V393H1683C1683.56 391.267 1683.22 390.6 1682 391V388H1681V385H1680V382L1679 381.75V378.25L1678 377.75V373.25L1677 372.75V368.25L1676 367.75V359.25L1675 358.75V349L1676 348.75V342.25L1677 341.75V336.25L1678 335.75V332.25C1679.13 332.517 1679.47 331.183 1679 328.25L1680 328V325.25L1681 325V322H1682C1681.44 320.267 1681.78 319.6 1683 320V317H1684V315H1685V313H1686V311H1687V309H1688V307.25C1689.08 307.513 1689.42 306.763 1689 305L1691 304V302L1693 301V299H1694V298L1696 297V295H1697V294H1698V293L1700 292V290H1701V289H1702V288H1703V287H1704V286H1705V285H1706V284H1707V283H1708V282H1709V281H1710V280H1711L1712 278H1714V277H1715V276H1716L1717 274H1719L1720 272H1722L1723 270H1725L1726 268H1728V267H1730V266H1732V265H1734V264H1736V263H1738V262C1739.73 262.557 1740.4 262.223 1740 261H1743V260C1744.73 260.557 1745.4 260.223 1745 259H1748L1748.25 258H1751.75L1752 257H1755L1755.25 256H1759.75L1760 255H1764.75L1765.25 254H1773.75L1774 253ZM1773 299V300H1767.5L1767 301H1763.5L1763 302H1760C1760.33 303.333 1759.67 303.667 1758 303V304H1756V305H1754V306H1752V307H1750L1749 309H1747L1746 311H1744L1743 313H1742V314H1741V315H1740V316H1739V317H1738V318H1737V319H1736V321L1734 322V323H1733V325L1731 326C1731.33 327.667 1731 328.5 1730 328.5V330H1729V332H1728V334H1727V337H1726V340L1725 340.5V344H1724V365L1725 365.5V370H1726V373C1727.33 372.667 1727.67 373.333 1727 375H1728V378C1729.33 377.667 1729.67 378.333 1729 380H1730V382L1732 383V385L1734 386V388L1736 389V390H1737V392L1739 393V394H1740V395H1741V396H1742V397H1743V398H1744V399H1745V400H1747L1748 402H1750L1751 404C1752.67 403.667 1753.5 404 1753.5 405H1755V406H1757V407H1759V408H1761V409H1763V410H1766L1766.5 411H1770L1770.5 412H1774L1774.5 413H1780V414H1811L1811.5 413H1817L1817.5 412H1821V411H1824L1824.5 410H1827C1826.67 408.667 1827.33 408.333 1829 409V408H1831V407H1833V406H1835L1836 404H1838L1839 402H1841L1842 400H1843V399H1844V398H1845V397H1846V396H1847V395H1848V394H1849V393H1850V392H1851V391H1852V389L1854 388V386L1856 385C1855.67 383.333 1856 382.667 1857 383V381H1858V379H1859V377H1860V374H1861V371H1862V366.5L1863 366V360.5L1864 360V302.5C1863 302.5 1862.67 301.667 1863 300C1861.33 300.333 1860.67 300 1861 299H1773Z" fill="black"/>
<path opacity="0.984314" d="M2041 253H2169.75L2170.25 254H2175.75C2175.49 255.083 2176.24 255.417 2178 255V256L2180 257V259L2181 259.25V375L2180 375.25V381.75L2179 382.25V386.75L2178 387.25V391.75C2176.87 391.483 2176.53 392.817 2177 395.75L2176 396V398.75L2175 399V402H2174V405H2173V408H2172V410H2171C2171.56 411.733 2171.22 412.4 2170 412V414.75C2168.92 414.487 2168.58 415.237 2169 417L2167 418V420H2166V421.75C2164.92 421.487 2164.58 422.237 2165 424L2163 425V426.75C2161.92 426.487 2161.58 427.237 2162 429H2161V430L2159 431V433H2158V434H2157V435H2156V436H2155V437H2154V438H2153V439H2152V440H2151V441H2150V442H2149V443H2148V444H2147V445H2146L2145 447H2143V448H2142L2141 450H2139.25C2139.51 451.083 2138.76 451.417 2137 451L2136 453C2134.27 452.443 2133.6 452.777 2134 454H2131L2130.75 455H2126.25L2125.75 456H2118.25L2117.75 457H2110.25L2109.75 458H2100.25L2099.75 459H2073.25L2072.75 460H2066L2065.75 459H2058L2057.75 460H2054L2053.75 459H2042.25L2041.75 458H2035.25L2034.75 457H2030.25L2029.75 456H2025.25L2025 455H2022V454H2019V453H2016V452H2013V451C2011.27 451.557 2010.6 451.223 2011 450H2008V449H2006V448H2004.25C2004.51 446.917 2003.76 446.583 2002 447L2001 445H1999V444H1997.25C1997.51 442.917 1996.76 442.583 1995 443L1994 441H1992L1991 439H1989V438H1988V437H1987L1986 435H1984V434H1983V433H1982V432H1981V431H1980V430H1979V429H1978V428H1977V427H1976V426H1975V425H1974V424H1973V423H1972L1971 421H1970V419H1969V418H1968V417L1966 416V414L1964 413V411L1962 410V408H1961V406.25C1959.92 406.513 1959.58 405.763 1960 404L1958 403V401H1957V399H1956V397H1955C1955.56 395.267 1955.22 394.6 1954 395V392.25L1953 392V389.25C1951.92 389.513 1951.58 388.763 1952 387H1951V384L1950 383.75V380.25L1949 380V376.25L1948 375.75V371.25L1947 370.75V365.25L1946 364.75V345L1947 344.75V338.25L1948 337.75V334.25C1949.13 334.517 1949.47 333.183 1949 330.25L1950 330V327.25L1951 327V324H1952V321H1953C1952.44 319.267 1952.78 318.6 1954 319V316H1955V314H1956V312H1957V310.25C1958.08 310.513 1958.42 309.763 1958 308L1960 307V305.25C1961.08 305.513 1961.42 304.763 1961 303L1963 302V300L1965 299V297H1966V296L1968 295V293H1969V292L1971 291V289H1972V288H1973V287H1974V286H1975V285H1976V284H1977V283H1978V282H1979V281H1980V280H1981V279H1982L1983 277H1985V276H1986V275H1987L1988 273H1990L1991 271H1993L1994 269H1996L1997 267H1999V266H2001V265H2003V264H2005V263H2007V262H2009V261C2010.73 261.557 2011.4 261.223 2011 260H2014V259H2017V258H2020V257H2023L2023.25 256H2026.75L2027.25 255H2032.75L2033.25 254H2040.75L2041 253ZM2043 299V300H2038.5L2038 301H2034.5C2034.5 302.333 2033.5 302.667 2031.5 302C2031.5 303 2030.67 303.333 2029 303V304H2026C2026.33 305.333 2025.67 305.667 2024 305V306H2022L2021 308H2019L2018 310H2016L2015 312H2014V313H2013V314H2011L2010 316H2009V318L2007 319V320H2006V321H2005V323L2003 324V326L2001 327C2001.33 328.667 2001 329.5 2000 329.5V331H1999V333H1998V336H1997V339H1996V342L1995 342.5V349H1994V361L1995 361.5V367C1996 366.667 1996.33 368 1996 371H1997V374C1998 373.667 1998.33 374.333 1998 376H1999V379C2000 378.667 2000.33 379.333 2000 381L2002 382C2001.67 383.667 2002 384.5 2003 384.5V386L2005 387V389L2007 390V391H2008V393L2010 394V395H2011V396H2012V397H2013V398H2014V399H2016L2017 401H2018V402H2020L2021 404C2022.67 403.667 2023.5 404 2023.5 405H2025L2026 407C2027.67 406.667 2028.5 407 2028.5 408H2030V409H2033V410C2034.67 409.667 2035.5 410 2035.5 411C2038.17 410.667 2039.5 411 2039.5 412H2043L2043.5 413H2048V414H2083L2083.5 413H2089C2088.67 412 2090 411.667 2093 412V411H2096C2095.67 410 2096.33 409.667 2098 410V409H2101C2100.67 408 2101.33 407.667 2103 408L2104 406H2106L2107 404H2109L2110 402H2112L2113 400H2114V399H2115V398H2116V397H2117V396H2118V395H2119V394H2120V392L2122 391V390H2123C2122.67 388.333 2123 387.667 2124 388V386L2126 385C2125.67 383.333 2126 382.667 2127 383V381H2128V378H2129V375H2130C2129.67 372 2130 370.667 2131 371V367.5L2132 367V358.5L2133 358V301.5C2132 301.5 2131.67 301 2132 300H2131V299H2043Z" fill="black"/>
<path opacity="0.984314" d="M2136 477C2137.05 476.75 2137.47 477.083 2137.25 478H2140V479C2141.73 478.443 2142.4 478.777 2142 480H2145V481C2146.73 480.443 2147.4 480.777 2147 482H2150V483C2151.73 482.443 2152.4 482.777 2152 484H2154.75L2155 485H2158V486C2159.73 485.443 2160.4 485.777 2160 487H2162.75L2163 488H2166V489H2169V490H2170.75C2170.49 491.083 2171.24 491.417 2173 491V492H2174V493L2176 494V496C2177 495.667 2177.33 496 2177 497L2176 497.25V501.75L2175 502.25V505.75L2174 506.25V509.75L2173 510.25V513.75L2172 514V517H2171C2171.56 518.733 2171.22 519.4 2170 519V521.75L2169 522V525H2168V527H2167V529H2166V531H2165V532.75C2163.92 532.487 2163.58 533.237 2164 535L2162 536V537.75C2160.92 537.487 2160.58 538.237 2161 540L2159 541V543L2157 544V546H2156V547L2154 548V550H2153V551H2152V552L2150 553V555H2149V556H2148V557H2147V558H2146V559H2145V560H2144V561H2143V562H2142V563H2141L2140 565H2138V566H2137V567H2136V568H2135L2134 570H2132V571H2131L2130 573H2128L2127 575H2125.25C2125.51 576.083 2124.76 576.417 2123 576L2122 578H2120V579H2118V580H2116V581C2114.27 580.443 2113.6 580.777 2114 582H2111V583C2109.27 582.443 2108.6 582.777 2109 584H2106V585C2104.27 584.443 2103.6 584.777 2104 586H2101L2100.75 587H2097.25L2097 588H2094L2093.75 589H2089.25L2088.75 590H2084.25L2083.75 591H2074.25L2073.75 592H2060L2059.75 591H2050.25L2049.75 590H2044.25L2043.75 589H2039.25L2038.75 588H2035.25L2035 587H2032V586H2029V585H2026V584C2024.27 584.557 2023.6 584.223 2024 583H2021V582H2019V581H2017V580H2015V579H2013V578H2011V577H2009.25C2009.51 575.917 2008.76 575.583 2007 576L2006 574H2004L2003 572H2001V571H2000L1999 569H1997V568H1996V567H1995V566H1994L1993 564H1991V563H1990V562H1989V561H1988V560H1987V559H1986V558H1985V557H1984V556H1983V555H1982V554L1980 553V551H1979V550L1977 549V547H1976V546L1974 545V543L1972 542V540L1970 539V537H1969V535H1968V533H1967V531H1966V529H1965V527H1964C1964.56 525.267 1964.22 524.6 1963 525V522H1962C1962.56 520.267 1962.22 519.6 1961 520V516.25L1960 516V513H1959V510L1958 509.75V506.25L1957 505.75V502H1958V500C1959 500.333 1959.33 500 1959 499H1961V498C1962.73 498.557 1963.4 498.223 1963 497H1965.75L1966 496H1969V495H1971V494C1972.73 494.557 1973.4 494.223 1973 493H1976V492C1977.73 492.557 1978.4 492.223 1978 491H1981V490C1982.73 490.557 1983.4 490.223 1983 489H1985.75C1985.49 487.917 1986.24 487.583 1988 488V487H1991V486H1993V485C1994.73 485.557 1995.4 485.223 1995 484H2000V485L2002 486V488H2003V492.75L2004 493.25V498.75C2005.13 498.483 2005.47 499.817 2005 502.75L2006 503V505.75L2007 506V509H2008V511H2009V513H2010V515H2011V516.75C2012.08 516.487 2012.42 517.237 2012 519L2014 520V522L2016 523V525H2017V526H2018V527H2019V528H2020V529H2021V530H2022L2023 532H2025V533H2026L2027 535H2029L2030 537H2032L2033 539H2035V540C2036.73 539.443 2037.4 539.777 2037 541H2040V542C2041.73 541.443 2042.4 541.777 2042 543H2045L2045.25 544H2048.75L2049.25 545H2053.75L2054.25 546H2080L2080.25 545H2083.75L2084.25 544H2087.75L2088 543H2091V542C2092.73 542.557 2093.4 542.223 2093 541H2096V540H2098V539H2099.75C2099.49 537.917 2100.24 537.583 2102 538L2103 536H2105V535H2106V534H2107L2108 532H2110V531H2111V530H2112V529H2113V528H2114V527H2115V526L2117 525V523H2118V522L2120 521V519L2122 518V516H2123V514H2124V512H2125V510.25C2126.08 510.513 2126.42 509.763 2126 508H2127V505H2128V502L2129 501.75V498.25L2130 497.75V494.25L2131 493.75V487.25L2132 486.75V481.25C2133.08 481.513 2133.42 480.763 2133 479C2134 479.333 2134.33 479 2134 478H2136V477Z" fill="black"/>
<g clip-path="url(#clip0_1_79)">
<path d="M378.928 340.353C381.941 336.807 387.738 338.938 387.738 343.591V475C387.738 477.761 385.5 480 382.738 480H329C326.239 480 324 477.761 324 475V406.83C324 405.644 324.422 404.496 325.19 403.592L378.928 340.353Z" fill="#F6B21B"/>
<path d="M411.528 309.753C409.584 310.489 408.299 312.351 408.299 314.429V475C408.299 477.761 410.538 480 413.299 480H467.037C469.799 480 472.037 477.761 472.037 475V294.071C472.037 290.573 468.537 288.156 465.266 289.395L411.528 309.753Z" fill="#15803D"/>
<path d="M418.579 74C418.579 71.2386 420.759 69 423.521 69C452.65 69 602.328 69 650.578 69C707.289 69 764 132.705 764 188.19C764 266.94 764 279.637 764 364.92C764 422.46 707.289 480 650.578 480C615.362 480 600.232 480 593.99 480C591.229 480 590.774 477.761 590.774 475V419.24C590.774 416.479 593.013 414.24 595.774 414.24H680.636C683.397 414.24 685.636 412.001 685.636 409.24V247.985C685.636 243.614 680.422 241.347 677.225 244.329L500.199 409.476C497.002 412.458 491.788 410.191 491.788 405.82V315.697C491.788 314.323 492.353 313.01 493.351 312.066L655.36 158.695C656.264 157.839 656.876 156.669 656.751 155.431C656.203 150.019 651.096 147.979 641.298 145.035C631.104 141.971 474.506 144.646 454.667 144.998C453.339 145.022 452.069 144.516 451.114 143.593L420.105 113.629C419.13 112.687 418.579 111.389 418.579 110.034V74Z" fill="#22C55E"/>
</g>
<defs>
<clipPath id="clip0_1_79">
<rect width="440" height="411" fill="white" transform="translate(324 69)"/>
</clipPath>
</defs>
</svg>
