<svg width="532" height="532" viewBox="0 0 532 532" fill="none" xmlns="http://www.w3.org/2000/svg">
<g clip-path="url(#clip0_1_3)">
<path d="M105.189 330.374C108.201 326.827 114 328.958 114 333.611V461C114 463.761 111.761 466 109 466H57C54.2386 466 52 463.761 52 461V394.837C52 393.651 52.4214 392.504 53.189 391.6L105.189 330.374Z" fill="#F6B21B"/>
<path d="M137.228 300.277C135.285 301.013 134 302.874 134 304.952V461C134 463.761 136.239 466 139 466H191C193.761 466 196 463.761 196 461V285.242C196 281.744 192.499 279.327 189.228 280.567L137.228 300.277Z" fill="#15803D"/>
<path d="M144 71C144 68.2386 146.17 66 148.932 66C177.567 66 322.806 66 369.672 66C424.836 66 480 128 480 182C480 258.642 480 271 480 354C480 410 424.836 466 369.672 466C335.672 466 320.919 466 314.765 466C312.003 466 311.499 463.761 311.499 461V407C311.499 404.239 313.737 402 316.499 402H398.773C401.535 402 403.773 399.761 403.773 397V240.506C403.773 236.135 398.558 233.868 395.361 236.851L223.624 397.149C220.428 400.132 215.212 397.865 215.212 393.493V306.151C215.212 304.778 215.777 303.465 216.774 302.521L374.285 153.33C375.189 152.474 375.803 151.304 375.671 150.066C375.11 144.838 370.144 142.856 360.645 140C350.736 137.021 198.65 139.617 179.151 139.963C177.822 139.987 176.562 139.481 175.606 138.557L145.525 109.474C144.55 108.532 144 107.235 144 105.879V71Z" fill="#22C55E"/>
</g>
<defs>
<clipPath id="clip0_1_3">
<rect width="428" height="400" fill="white" transform="translate(52 66)"/>
</clipPath>
</defs>
</svg>
