<svg xmlns="http://www.w3.org/2000/svg" viewBox="0 0 24 24" role="img" aria-hidden="true">
  <path
    fill="#0B0D0E"
    d="M12 10.2v3.72h5.16c-.22 1.2-.88 2.22-1.88 2.9v2.42h3.04C20.1 17.6 21 15.16 21 12.28c0-.72-.06-1.42-.2-2.08H12Z"
  />
  <path
    fill="#0B0D0E"
    d="M6.62 14.06 5.94 14.58l-2.42 1.88C5.06 19.5 8.26 21.5 12 21.5c2.54 0 4.68-.84 6.32-2.26l-3.04-2.42c-.84.56-1.9.88-3.28.88-2.44 0-4.5-1.66-5.24-3.88l-.14.24Z"
  />
  <path
    fill="#0B0D0E"
    d="M3.52 7.54A9.44 9.44 0 0 0 2.5 12c0 1.6.38 3.12 1.02 4.46l3.24-2.64A5.66 5.66 0 0 1 6.46 12c0-.64.1-1.26.3-1.82L3.52 7.54Z"
  />
  <path
    fill="#0B0D0E"
    d="M12 6.3c1.38 0 2.62.48 3.6 1.42l2.78-2.78C16.68 3.36 14.54 2.5 12 2.5c-3.74 0-6.94 2-8.48 5.04l3.24 2.64C7.5 7.96 9.56 6.3 12 6.3Z"
  />
</svg>
